<svg id="Layer_1" enable-background="new 0 0 100 100" viewBox="0 0 100 100" xmlns="http://www.w3.org/2000/svg"><g><path d="m29.6715145 81.6308823-.0001221-.0000611-.0006103-.0001831z"/></g><path d="m79.8713989 68.5078735.0010376.0015869z"/><path d="m87.5999756 27.1999245c-.1116333-.1473389-1.6277466-2.1330566-4.8267822-4.1033325-3.1932373-1.970459-8.0888062-3.90094-14.7731934-3.8966675-6.6843262-.0042725-11.5799561 1.9262085-14.7731934 3.8966675-1.3932495.8580932-2.4489746 1.7097778-3.2268066 2.4205932-.777832-.7108154-1.8335571-1.5625-3.2268066-2.4205933-3.1932373-1.9704589-8.0888062-3.9009399-14.7731934-3.8966674-6.6843262-.0042725-11.5799561 1.9262085-14.7731934 3.8966675-3.1990356 1.9702759-4.7151489 3.9559937-4.8267822 4.1033325-.2617798.348999-.4000244.7636718-.4000244 1.2000122v50.3999596c0 .7401123.4037476 1.4141235 1.0562744 1.7633667.6480103.3468628 1.4257812.3099365 2.0396118-.0926514l.0010376.0015869c.0361939-.0164795 5.0671387-3.2667236 16.9030762-3.2722778 6.1096802.0004272 10.4047241.8713379 13.1368408 1.7115479 1.3660278.4203491 2.3414307.8334961 2.9570923 1.1289673.3078003.1477661.5255737.2661133.6571655.3412476l.1330566.0786743.0188599.0118408.0010376-.0016479c.0232544.0152588.0499268.0216675.0736694.0358276.0280762.0168457.0494385.0413208.0785522.0568848.0522461.0279541.109375.0377197.163208.06073.0852661.0365601.1690674.0716553.2575684.0958252.0853882.0233765.1705322.0358276.2574463.0475464.0888062.0120237.1759034.022949.265503.022888.0895996.000061.1766968-.0108643.2655029-.0228882.0869141-.0117188.1720581-.0241699.2574463-.0475464.088501-.0241699.1723022-.0592651.2575684-.0958252.053833-.0230103.1109619-.0327759.163208-.06073.0291138-.015564.0504761-.0400391.0785522-.0568848.0237427-.0141602.050354-.0205078.0736084-.0357666l.0010376.0015869c.0361939-.0164794 5.0671387-3.2667235 16.9030762-3.2722777 6.1096802.0004272 10.4047241.8713379 13.1368408 1.7115479 1.3660278.4203491 2.3414307.8334961 2.9570923 1.1289673.3078003.1477661.5255737.2661133.6571655.3412476l.1330566.0786743.0188599.0118408.0010376-.0016479c.6138306.4025879 1.3916626.4395752 2.0396729.0927124.6525268-.3492433 1.0562744-1.0232546 1.0562744-1.7633669v-50.3999595c0-.4363404-.1382446-.8510132-.4000244-1.2000122zm-55.5999756 45.9999962c-7.809021-.0037231-13.0140381 1.3455811-16 2.4672852v-46.5184899c.578186-.6137085 1.7862549-1.753418 3.7017822-2.8726196 2.6638184-1.5531006 6.6563721-3.0725098 12.2982178-3.0761719 5.9156494.0042114 10.0200195 1.6737671 12.6768188 3.3032837 1.3258667.8158569 2.2839355 1.6254272 2.8974609 2.2144775.1705323.1636963.3080445.3048096.4257203.4295654v46.5200157c-2.9859619-1.1217651-8.190979-2.4710693-16-2.4673461zm36 0c-7.809021-.0037231-13.0140381 1.3455811-16 2.4672852v-46.5184899c.578186-.6137085 1.7862549-1.753418 3.7017822-2.8726196 2.6638184-1.5531006 6.6563721-3.0725098 12.2982178-3.0761719 5.9156494.0042114 10.0200195 1.6737671 12.6768188 3.3032837 1.3258667.8158569 2.2839355 1.6254272 2.8974609 2.2144775.1705323.1636963.3080445.3048096.4257203.4295654v46.5200157c-2.9859619-1.1217651-8.190979-2.4710693-16-2.4673461z"/></svg>